<?xml version="1.0" standalone="no"?>
<!DOCTYPE svg PUBLIC "-//W3C//DTD SVG 20010904//EN"
 "http://www.w3.org/TR/2001/REC-SVG-20010904/DTD/svg10.dtd">
<svg version="1.0" xmlns="http://www.w3.org/2000/svg"
 width="480.000000pt" height="449.000000pt" viewBox="0 0 480.000000 449.000000"
 preserveAspectRatio="xMidYMid meet">
<metadata>
Created by potrace 1.14, written by Peter Selinger 2001-2017
</metadata>
<g transform="translate(0.000000,449.000000) scale(0.100000,-0.100000)"
fill="#000000" stroke="none">
<path d="M2475 4139 c4 -13 82 -223 172 -466 l165 -443 194 0 c181 0 194 1
194 18 0 33 -102 189 -222 337 -79 100 -483 561 -498 570 -9 5 -10 1 -5 -16z"/>
<path d="M2386 3980 c-26 -5 -54 -11 -60 -13 -8 -3 -17 -49 -25 -124 -7 -65
-14 -126 -17 -135 -4 -13 -40 -29 -121 -54 l-117 -37 -96 102 -96 102 -102
-58 c-56 -32 -102 -64 -102 -72 0 -8 16 -66 36 -129 19 -62 34 -119 32 -126
-2 -7 -42 -47 -89 -89 l-86 -77 -131 55 c-72 30 -135 55 -139 55 -9 -1 -113
-141 -133 -179 -11 -22 -7 -29 84 -120 53 -53 96 -101 96 -106 0 -6 -21 -61
-47 -122 l-48 -113 -186 0 c-134 0 -190 -4 -203 -13 -9 -7 -30 -53 -46 -102
l-29 -90 0 83 c-1 123 0 122 -206 122 -152 0 -167 -2 -185 -20 -19 -19 -20
-33 -20 -465 0 -434 0 -445 20 -465 20 -20 32 -21 368 -20 191 0 381 1 423 0
l77 0 46 -106 46 -105 -27 -33 c-16 -19 -59 -68 -96 -109 -38 -42 -67 -80 -65
-85 11 -28 135 -192 145 -192 7 0 65 27 130 59 135 68 109 73 233 -42 l72 -67
-45 -135 -46 -136 67 -43 c37 -24 86 -53 109 -65 l42 -21 93 105 c51 58 97
104 103 102 5 -2 55 -19 110 -37 55 -18 103 -36 108 -39 4 -4 14 -67 21 -140
8 -73 17 -135 20 -139 8 -8 237 -33 246 -27 4 3 13 26 20 52 7 27 16 52 20 56
4 4 69 -58 145 -138 76 -80 139 -144 141 -142 2 2 -42 113 -98 248 -55 134
-158 383 -228 554 l-128 310 114 3 c63 1 114 5 114 9 0 3 -52 201 -115 439
-63 237 -115 434 -115 437 0 3 50 4 110 3 92 -1 110 1 110 14 0 8 -50 206
-110 439 -60 234 -107 427 -104 430 3 3 52 4 109 3 56 -2 105 0 108 5 3 4 -28
175 -69 378 -40 204 -74 371 -74 373 0 4 -65 0 -114 -8z m-1708 -1310 c9 0 12
-90 12 -415 l0 -415 -135 0 -135 0 0 414 0 415 23 3 c17 2 125 2 235 -2z m952
-7 c4 -4 29 -78 55 -163 26 -85 60 -191 76 -234 28 -76 29 -87 29 -253 l0
-173 -155 0 -154 0 -3 138 -3 137 -33 -125 c-18 -69 -35 -131 -37 -137 -3 -10
-42 -13 -149 -13 l-144 0 -35 138 -35 137 -1 -137 -1 -138 -155 0 -155 0 0
178 c0 162 2 185 24 248 13 38 45 144 72 237 l48 167 171 0 171 0 19 -76 c20
-82 25 -81 49 10 8 33 19 62 25 65 14 9 313 3 321 -6z m730 -133 l0 -140 -90
0 -90 0 0 -275 0 -275 -146 0 -146 0 3 273 3 272 -55 2 c-30 1 -59 2 -65 2
-11 1 -29 50 -80 209 l-22 72 344 0 344 0 0 -140z"/>
<path d="M2863 3948 c110 -89 344 -380 447 -553 29 -49 64 -107 77 -127 l23
-38 320 0 c199 0 320 4 320 10 0 5 -36 54 -81 110 -251 312 -608 528 -1007
611 -134 27 -146 26 -99 -13z"/>
<path d="M2700 3034 c0 -6 164 -625 176 -666 5 -17 28 -18 295 -18 l289 0 0
28 c0 54 -39 289 -64 385 -15 54 -41 137 -59 185 l-32 87 -302 3 c-167 1 -303
-1 -303 -4z"/>
<path d="M3535 2908 c50 -156 79 -290 97 -445 l12 -113 358 0 359 0 -5 33 c-3
17 -13 83 -21 145 -22 154 -75 332 -147 484 l-13 28 -341 0 -342 0 43 -132z"/>
<path d="M2700 2148 c0 -7 140 -545 166 -636 l15 -52 216 2 216 3 30 80 c61
168 117 442 117 573 l0 37 -380 0 c-209 0 -380 -3 -380 -7z"/>
<path d="M3645 2145 c-2 -5 -8 -62 -14 -125 -6 -63 -20 -159 -31 -213 -18 -87
-74 -282 -95 -330 -7 -16 11 -17 329 -15 l337 3 38 85 c45 100 84 218 107 315
16 73 45 277 40 282 -9 9 -709 7 -711 -2z"/>
<path d="M2700 1258 c0 -17 99 -518 106 -538 12 -33 225 228 342 419 35 57 66
110 69 117 4 12 -40 14 -256 14 -202 0 -261 -3 -261 -12z"/>
<path d="M3382 1204 c-81 -164 -261 -411 -421 -577 -46 -48 -82 -89 -80 -91 2
-2 47 5 99 16 381 77 739 298 998 616 93 113 120 102 -246 102 l-318 0 -32
-66z"/>
</g>
</svg>
