<?xml version="1.0" encoding="utf-8"?>
<!-- Generator: Adobe Illustrator 16.0.0, SVG Export Plug-In . SVG Version: 6.00 Build 0)  -->
<!DOCTYPE svg PUBLIC "-//W3C//DTD SVG 1.1//EN" "http://www.w3.org/Graphics/SVG/1.1/DTD/svg11.dtd">
<svg version="1.1" id="Layer_1" xmlns="http://www.w3.org/2000/svg" xmlns:xlink="http://www.w3.org/1999/xlink" x="0px" y="0px"
	 width="280.07px" height="47.004px" viewBox="0 0 280.07 47.004" enable-background="new 0 0 280.07 47.004" xml:space="preserve">
<g>
	<rect x="130.095" y="2.589" fill="#ED1F24" width="144.688" height="42.25"/>
</g>
<g>
	<path fill="#ED1F24" d="M16.983,26.623v7.41c0,1.105,0.289,1.636,0.962,1.636s0.962-0.53,0.962-1.733v-5.918
		c0-1.732-0.096-1.877-1.155-2.502l-0.289-0.193l-3.176-1.876c-2.31-1.347-2.792-2.213-2.792-5.148v-5.101v-0.386
		c0-2.358,0.481-3.464,1.877-4.283c1.011-0.577,1.925-0.722,4.86-0.722c2.599,0,3.464,0.145,4.476,0.867
		c1.203,0.866,1.636,1.973,1.636,4.042v0.625v5.583h-5.438v-4.908c0-1.54-0.241-1.925-0.962-1.925s-0.962,0.433-0.962,1.781v0.145
		v4.378c0,1.107,0.048,1.203,0.722,1.636l4.475,2.743c1.732,1.107,2.166,1.974,2.166,4.523v0.337v7.074
		c0,2.309-0.289,3.271-1.299,4.186c-0.962,0.914-2.069,1.156-5.293,1.156c-2.454,0-3.272-0.146-4.187-0.627
		c-1.492-0.817-2.069-2.021-2.069-4.234V34.61v-7.987H16.983z"/>
	<path fill="#ED1F24" d="M27.137,13.678v-1.203c0-2.022,0.577-3.225,1.924-3.994c0.962-0.529,1.877-0.674,4.475-0.674
		c3.176,0,4.187,0.241,5.246,1.203c0.673,0.674,1.01,1.443,1.154,2.551c0.048,0.481,0.048,0.673,0.048,2.117v20.5
		c0,2.165-0.048,2.646-0.336,3.32c-0.433,1.106-1.444,1.973-2.647,2.261c-0.674,0.192-1.636,0.29-3.465,0.29
		c-2.598,0-3.513-0.146-4.475-0.723c-1.348-0.77-1.924-1.973-1.924-3.994v-1.154V13.678z M34.499,14.447v-0.673
		c0-1.203-0.289-1.636-0.962-1.636c-0.481,0-0.77,0.289-0.866,0.818c-0.047,0.241-0.096,0.577-0.096,1.492v18.912
		c0,1.059,0.049,1.348,0.096,1.588c0.145,0.48,0.433,0.77,0.866,0.77c0.673,0,0.962-0.529,0.962-1.684v-0.674V14.447z"/>
	<path fill="#ED1F24" d="M42.871,13.629v-1.203c0-1.973,0.625-3.176,1.925-3.945c0.914-0.578,1.876-0.674,4.667-0.674
		c2.936,0,3.898,0.241,4.957,1.155c0.722,0.626,1.106,1.492,1.251,2.647c0.047,0.481,0.047,0.77,0.047,2.069v5.245h-5.485v-4.476
		v-0.625c0-1.203-0.288-1.684-0.962-1.684c-0.626,0-0.963,0.481-0.963,1.587v0.674v19.007c0,1.011,0.049,1.3,0.097,1.54
		c0.144,0.48,0.433,0.77,0.867,0.77c0.674,0,0.962-0.529,0.962-1.684v-0.674v-6.736h5.485v7.555c0,2.165-0.047,2.646-0.337,3.32
		c-0.433,1.106-1.443,1.973-2.646,2.261c-0.674,0.192-1.636,0.29-3.464,0.29c-2.6,0-3.513-0.146-4.476-0.723
		c-1.348-0.77-1.925-1.973-1.925-3.994v-1.154V13.629z"/>
	<path fill="#ED1F24" d="M58.653,7.855h5.486v32.095h-5.486V7.855z"/>
	<path fill="#ED1F24" d="M68.998,7.855h7.41l3.224,32.095h-5.437l-0.385-6.736h-2.454l-0.481,6.736h-4.813L68.998,7.855z
		 M73.57,28.884L72.8,17.383c0-0.096,0-0.145-0.049-0.241l-0.048-1.203c-0.049-0.385-0.097-0.722-0.097-0.963l-0.047-0.336v0.336
		c-0.048,0.385-0.097,0.77-0.097,1.107c-0.048,0.578-0.096,1.011-0.096,1.059c0,0.096,0,0.192,0,0.241l-0.722,11.501H73.57z"/>
	<path fill="#ED1F24" d="M81.509,7.855h5.486V35.62h3.368v4.331h-8.854V7.855z"/>
	<path fill="#ED1F24" d="M92.239,7.855h5.486v32.095h-5.486V7.855z"/>
	<path fill="#ED1F24" d="M106.145,26.623v7.41c0,1.105,0.289,1.636,0.962,1.636s0.962-0.53,0.962-1.733v-5.918
		c0-1.732-0.096-1.877-1.154-2.502l-0.289-0.193l-3.176-1.876c-2.31-1.347-2.791-2.213-2.791-5.148v-5.101v-0.386
		c0-2.358,0.481-3.464,1.876-4.283c1.011-0.577,1.925-0.722,4.861-0.722c2.598,0,3.464,0.145,4.474,0.867
		c1.203,0.866,1.636,1.973,1.636,4.042v0.625v5.583h-5.438v-4.908c0-1.54-0.239-1.925-0.962-1.925c-0.721,0-0.962,0.433-0.962,1.781
		v0.145v4.378c0,1.107,0.048,1.203,0.722,1.636l4.475,2.743c1.733,1.107,2.166,1.974,2.166,4.523v0.337v7.074
		c0,2.309-0.289,3.271-1.299,4.186c-0.962,0.914-2.069,1.156-5.293,1.156c-2.454,0-3.272-0.146-4.187-0.627
		c-1.491-0.817-2.069-2.021-2.069-4.234V34.61v-7.987H106.145z"/>
	<path fill="#ED1F24" d="M117.887,12.186h-3.032v-4.33h11.549v4.33h-3.032v27.765h-5.485V12.186z"/>
	<path fill="#FFFFFF" d="M135.978,7.855h7.074h0.962c1.925,0.047,3.031,0.48,3.897,1.491c0.77,0.914,0.915,1.588,0.915,3.994v0.818
		v5.726c0,2.599-0.337,3.272-2.31,4.283c1.636,0.578,2.31,1.637,2.31,3.705v0.578v11.5h-5.438V28.595c0-0.049,0-0.097,0-0.193
		l-0.048-0.529c0-1.203-0.385-1.539-1.54-1.539h-0.336v13.617h-5.486V7.855z M141.464,22.002h0.577h0.241
		c0.721-0.048,1.105-0.433,1.105-1.299v-0.336v-6.545v-0.433c0-0.866-0.336-1.203-1.202-1.203h-0.241h-0.48V22.002z"/>
	<path fill="#FFFFFF" d="M151.76,7.855h8.998v4.33h-3.512v8.036h3.512v4.331h-3.512V35.62h3.512v4.331h-8.998V7.855z"/>
	<path fill="#FFFFFF" d="M162.394,7.855h5.438l1.203,21.509l1.732-21.509h4.812l-3.08,32.095h-7.025L162.394,7.855z"/>
	<path fill="#FFFFFF" d="M177.36,13.678v-1.203c0-2.022,0.577-3.225,1.925-3.994c0.963-0.529,1.876-0.674,4.475-0.674
		c3.176,0,4.187,0.241,5.245,1.203c0.674,0.674,1.011,1.443,1.155,2.551c0.047,0.481,0.047,0.673,0.047,2.117v20.5
		c0,2.165-0.047,2.646-0.336,3.32c-0.434,1.106-1.443,1.973-2.646,2.261c-0.674,0.192-1.636,0.29-3.465,0.29
		c-2.599,0-3.512-0.146-4.475-0.723c-1.348-0.77-1.925-1.973-1.925-3.994v-1.154V13.678z M184.722,14.447v-0.673
		c0-1.203-0.289-1.636-0.963-1.636c-0.48,0-0.77,0.289-0.865,0.818c-0.049,0.241-0.098,0.577-0.098,1.492v18.912
		c0,1.059,0.049,1.348,0.098,1.588c0.143,0.48,0.433,0.77,0.865,0.77c0.674,0,0.963-0.529,0.963-1.684v-0.674V14.447z"/>
	<path fill="#FFFFFF" d="M193.238,7.855h5.487V35.62h3.368v4.331h-8.855V7.855z"/>
	<path fill="#FFFFFF" d="M216.72,34.561v0.626c0,2.068-0.433,3.127-1.685,3.994c-1.058,0.722-1.876,0.867-5.052,0.867
		c-2.84,0-3.946-0.29-4.957-1.349c-0.866-0.866-1.105-1.731-1.105-3.993V7.855h5.438v25.936c0,1.444,0.24,1.925,0.961,1.925
		c0.723,0,0.964-0.529,0.964-1.876V7.855h5.437V34.561z"/>
	<path fill="#FFFFFF" d="M221.628,12.186h-3.032v-4.33h11.549v4.33h-3.031v27.765h-5.485V12.186z"/>
	<path fill="#FFFFFF" d="M232.021,7.855h5.486v32.095h-5.486V7.855z"/>
	<path fill="#FFFFFF" d="M240.538,13.678v-1.203c0-2.022,0.577-3.225,1.926-3.994c0.962-0.529,1.876-0.674,4.474-0.674
		c3.176,0,4.187,0.241,5.245,1.203c0.675,0.674,1.011,1.443,1.155,2.551c0.049,0.481,0.049,0.673,0.049,2.117v20.5
		c0,2.165-0.049,2.646-0.337,3.32c-0.434,1.106-1.444,1.973-2.647,2.261c-0.674,0.192-1.636,0.29-3.465,0.29
		c-2.598,0-3.512-0.146-4.474-0.723c-1.349-0.77-1.926-1.973-1.926-3.994v-1.154V13.678z M247.9,14.447v-0.673
		c0-1.203-0.288-1.636-0.963-1.636c-0.48,0-0.77,0.289-0.865,0.818c-0.049,0.241-0.097,0.577-0.097,1.492v18.912
		c0,1.059,0.048,1.348,0.097,1.588c0.144,0.48,0.433,0.77,0.865,0.77c0.675,0,0.963-0.529,0.963-1.684v-0.674V14.447z"/>
	<path fill="#FFFFFF" d="M256.416,7.855h5.631l3.031,15.061V7.855h4.813v32.095h-5.583l-3.078-16.12v16.12h-4.814V7.855z"/>
</g>
<g>
	<g>
		<rect x="7.077" y="2.589" fill="#ED1C24" width="142.259" height="2.021"/>
	</g>
</g>
<g>
	<g>
		<rect x="5.098" y="42.818" fill="#ED1C24" width="142.258" height="2.021"/>
	</g>
</g>
<g>
	<g>
		<rect x="5.056" y="2.589" fill="#ED1C24" width="2.021" height="41.239"/>
	</g>
</g>
<g>
</g>
</svg>
