<?xml version="1.0" standalone="no"?>
<!DOCTYPE svg PUBLIC "-//W3C//DTD SVG 20010904//EN"
 "http://www.w3.org/TR/2001/REC-SVG-20010904/DTD/svg10.dtd">
<svg version="1.0" xmlns="http://www.w3.org/2000/svg"
 width="1301.000000pt" height="187.000000pt" viewBox="0 0 1301.000000 187.000000"
 preserveAspectRatio="xMidYMid meet">
<g transform="translate(0.000000,187.000000) scale(0.100000,-0.100000)"
fill="#000000" stroke="none">
<path d="M2993 1863 l2997 -3 0 -930 0 -930 3510 0 3510 0 0 935 0 935 -6507
-2 c-3580 -2 -5159 -4 -3510 -5z m5705 -163 c111 -10 159 -36 194 -103 l23
-42 0 -635 0 -635 -22 -42 c-46 -84 -106 -106 -298 -107 -185 0 -242 24 -286
119 -17 38 -19 79 -19 663 0 540 2 628 15 660 32 75 85 111 180 122 87 10 110
10 213 0z m3080 0 c111 -10 159 -36 194 -103 l23 -42 0 -635 0 -635 -22 -42
c-46 -84 -106 -106 -298 -107 -185 0 -242 24 -286 119 -17 38 -19 79 -19 663
0 540 2 628 15 660 32 75 85 111 180 122 87 10 110 10 213 0z m-4993 -19 c47
-22 89 -64 104 -104 7 -17 11 -130 11 -293 0 -294 -1 -301 -65 -350 l-35 -26
33 -22 c65 -44 67 -54 67 -418 l0 -328 -129 0 -129 0 -4 316 c-3 299 -4 316
-22 330 -11 8 -30 14 -43 14 l-23 0 0 -330 0 -330 -135 0 -135 0 0 780 0 780
233 0 c204 0 237 -3 272 -19z m705 -86 l0 -105 -85 0 -85 0 0 -195 0 -195 85
0 85 0 0 -105 0 -105 -85 0 -85 0 0 -270 0 -270 85 0 85 0 0 -105 0 -105 -220
0 -220 0 0 780 0 780 220 0 220 0 0 -105z m344 73 c3 -18 15 -224 26 -458 12
-234 25 -433 29 -443 3 -10 21 170 39 400 19 230 36 444 39 476 l6 57 119 0
120 0 -6 -47 c-4 -27 -35 -356 -71 -733 -36 -377 -67 -706 -71 -733 l-6 -47
-174 0 -174 0 0 33 c-1 17 -33 368 -73 780 l-73 747 133 0 132 0 5 -32z m1506
-643 l0 -675 80 0 80 0 0 -105 0 -105 -215 0 -215 0 0 780 0 780 135 0 135 0
0 -675z m510 26 c0 -398 4 -660 10 -675 12 -32 54 -36 70 -7 6 13 10 243 10
675 l0 656 135 0 136 0 -3 -712 c-3 -698 -3 -714 -23 -748 -53 -90 -174 -123
-375 -103 -87 9 -107 14 -142 39 -23 16 -51 47 -62 69 -21 39 -21 52 -24 748
l-3 707 136 0 135 0 0 -649z m1010 544 l0 -105 -75 0 -75 0 0 -675 0 -675
-135 0 -135 0 0 675 0 675 -75 0 -75 0 0 105 0 105 285 0 285 0 0 -105z m370
-675 l0 -780 -135 0 -135 0 0 780 0 780 135 0 135 0 0 -780z m1256 425 l72
-350 1 353 1 352 115 0 115 0 0 -780 0 -780 -134 0 c-120 0 -135 2 -140 18 -2
9 -35 179 -73 377 l-68 360 -3 -377 -2 -378 -115 0 -115 0 0 780 0 781 137 -3
137 -3 72 -350z"/>
<path d="M8570 1471 c-6 -13 -10 -204 -10 -551 0 -347 4 -538 10 -551 6 -11
21 -19 35 -19 42 0 45 38 45 570 0 532 -3 570 -45 570 -14 0 -29 -8 -35 -19z"/>
<path d="M11650 1471 c-6 -13 -10 -204 -10 -551 0 -347 4 -538 10 -551 6 -11
21 -19 35 -19 42 0 45 38 45 570 0 532 -3 570 -45 570 -14 0 -29 -8 -35 -19z"/>
<path d="M6550 1255 l0 -236 32 3 c52 5 58 28 58 233 0 205 -6 228 -58 233
l-32 3 0 -236z"/>
<path d="M361 1685 c-55 -17 -108 -68 -121 -115 -5 -19 -10 -134 -10 -255 0
-192 3 -225 19 -260 24 -52 36 -62 188 -154 72 -44 133 -89 140 -102 17 -32
18 -387 1 -424 -16 -35 -65 -35 -78 1 -6 14 -10 113 -10 220 l0 194 -130 0
-130 0 0 -247 c0 -220 3 -253 19 -288 42 -91 101 -115 283 -115 71 0 150 5
175 12 65 16 118 71 132 137 15 69 15 508 0 567 -15 60 -46 88 -195 180 -69
42 -132 83 -140 91 -11 11 -14 48 -14 171 0 172 9 206 53 200 37 -5 47 -43 47
-190 l0 -138 130 0 130 0 0 168 c-1 236 -17 289 -103 335 -37 19 -59 22 -192
24 -108 2 -162 -1 -194 -12z"/>
<path d="M1116 1686 c-57 -21 -88 -47 -111 -92 -19 -38 -20 -62 -23 -644 -2
-396 1 -621 8 -653 13 -63 41 -102 93 -130 39 -20 56 -22 207 -22 188 0 219 9
274 78 l31 39 3 631 c2 431 0 644 -8 669 -13 45 -52 93 -94 116 -44 23 -323
29 -380 8z m214 -215 c6 -13 10 -205 10 -555 0 -516 -1 -537 -19 -555 -26 -26
-57 -17 -70 21 -15 42 -15 1019 0 1071 9 32 14 37 39 37 19 0 33 -7 40 -19z"/>
<path d="M1886 1685 c-56 -20 -86 -45 -110 -91 -20 -38 -21 -55 -24 -644 -2
-396 1 -621 8 -653 13 -63 41 -102 93 -130 39 -20 56 -22 207 -22 188 0 219 9
274 78 l31 39 3 264 3 264 -131 0 -130 0 0 -205 c0 -189 -1 -206 -19 -224 -26
-26 -57 -17 -70 21 -15 43 -15 1034 0 1077 9 25 16 31 40 31 18 0 32 -7 39
-19 5 -11 10 -83 10 -160 l0 -141 130 0 130 0 0 185 c0 202 -7 234 -58 288
-14 15 -49 34 -76 42 -66 20 -295 20 -350 0z"/>
<path d="M2520 920 l0 -780 130 0 130 0 0 780 0 780 -130 0 -130 0 0 -780z"/>
<path d="M3020 1694 c0 -3 -31 -350 -70 -770 -38 -421 -70 -769 -70 -774 0 -6
48 -10 114 -10 l113 0 7 78 c3 42 9 117 12 165 l7 88 61 -3 61 -3 9 -163 9
-162 128 0 129 0 0 25 c0 14 -34 359 -75 768 -41 408 -75 748 -75 755 0 9 -43
12 -180 12 -99 0 -180 -3 -180 -6z m204 -719 c22 -323 25 -295 -29 -295 l-45
0 0 36 c0 53 28 498 37 574 l7 65 7 -75 c4 -41 14 -179 23 -305z"/>
<path d="M3630 920 l0 -780 215 0 215 0 0 105 0 105 -85 0 -85 0 0 675 0 675
-130 0 -130 0 0 -780z"/>
<path d="M4150 920 l0 -780 130 0 130 0 0 780 0 780 -130 0 -130 0 0 -780z"/>
<path d="M4691 1685 c-55 -17 -108 -68 -121 -115 -5 -19 -10 -134 -10 -255 0
-192 3 -225 19 -260 24 -52 36 -62 188 -154 72 -44 133 -89 140 -102 17 -32
18 -387 1 -424 -16 -35 -65 -35 -78 1 -6 14 -10 113 -10 220 l0 194 -130 0
-130 0 0 -247 c0 -220 3 -253 19 -288 42 -91 101 -115 283 -115 71 0 150 5
175 12 65 16 118 71 132 137 15 69 15 508 0 567 -15 60 -46 88 -195 180 -69
42 -132 83 -140 91 -11 11 -14 48 -14 171 0 172 9 206 53 200 37 -5 47 -43 47
-190 l0 -138 130 0 130 0 0 168 c-1 236 -17 289 -103 335 -37 19 -59 22 -192
24 -108 2 -162 -1 -194 -12z"/>
<path d="M5250 1595 l0 -105 75 0 75 0 0 -675 0 -675 130 0 130 0 0 675 0 675
75 0 75 0 0 105 0 105 -280 0 -280 0 0 -105z"/>
</g>
</svg>