<?xml version="1.0" encoding="utf-8"?>
<!-- Generator: Adobe Illustrator 16.0.0, SVG Export Plug-In . SVG Version: 6.00 Build 0)  -->
<!DOCTYPE svg PUBLIC "-//W3C//DTD SVG 1.1//EN" "http://www.w3.org/Graphics/SVG/1.1/DTD/svg11.dtd">
<svg version="1.1" id="Layer_1" xmlns="http://www.w3.org/2000/svg" xmlns:xlink="http://www.w3.org/1999/xlink" x="0px" y="0px"
	 width="333.246px" height="216px" viewBox="0 0 333.246 216" enable-background="new 0 0 333.246 216" xml:space="preserve">
<g>
	<rect x="8.44" y="111.818" fill="#ED1F24" width="317.412" height="92.687"/>
</g>
<g>
	<path fill="#FFFFFF" d="M19.229,122.9h15.518h2.11c4.223,0.104,6.651,1.055,8.551,3.271c1.689,2.006,2.006,3.484,2.006,8.762v1.795
		v12.562c0,5.701-0.738,7.18-5.067,9.396c3.589,1.267,5.067,3.59,5.067,8.129v1.267v25.229H35.484v-24.913c0-0.105,0-0.211,0-0.423
		l-0.105-1.16c0-2.64-0.844-3.378-3.378-3.378h-0.739v29.874H19.229V122.9z M31.262,153.936h1.267h0.528
		c1.583-0.106,2.428-0.95,2.428-2.85v-0.739V135.99v-0.95c0-1.901-0.738-2.641-2.639-2.641h-0.528h-1.056V153.936z"/>
	<path fill="#FFFFFF" d="M53.852,122.9h19.74v9.499h-7.707v17.63h7.707v9.501h-7.707v24.279h7.707v9.501h-19.74V122.9z"/>
	<path fill="#FFFFFF" d="M77.18,122.9h11.93l2.639,47.186L95.55,122.9h10.555l-6.756,70.41H83.936L77.18,122.9z"/>
	<path fill="#FFFFFF" d="M110.01,135.673v-2.639c0-4.435,1.267-7.073,4.224-8.762c2.11-1.161,4.115-1.479,9.817-1.479
		c6.966,0,9.183,0.528,11.505,2.639c1.479,1.479,2.217,3.167,2.535,5.596c0.104,1.056,0.104,1.478,0.104,4.645v44.97
		c0,4.752-0.104,5.806-0.738,7.284c-0.951,2.429-3.167,4.327-5.806,4.962c-1.479,0.422-3.589,0.634-7.6,0.634
		c-5.702,0-7.707-0.318-9.817-1.584c-2.957-1.688-4.224-4.327-4.224-8.761v-2.535V135.673z M126.161,137.361v-1.478
		c0-2.639-0.632-3.589-2.11-3.589c-1.057,0-1.688,0.633-1.901,1.794c-0.106,0.528-0.212,1.267-0.212,3.272v41.486
		c0,2.323,0.106,2.957,0.212,3.483c0.316,1.057,0.951,1.69,1.901,1.69c1.479,0,2.11-1.162,2.11-3.695v-1.479V137.361z"/>
	<path fill="#FFFFFF" d="M144.845,122.9h12.036v60.909h7.388v9.501h-19.424V122.9z"/>
	<path fill="#FFFFFF" d="M196.358,181.487v1.372c0,4.539-0.951,6.862-3.695,8.763c-2.321,1.582-4.115,1.9-11.083,1.9
		c-6.228,0-8.657-0.634-10.873-2.957c-1.901-1.9-2.429-3.799-2.429-8.761V122.9h11.93v56.898c0,3.167,0.528,4.223,2.11,4.223
		c1.584,0,2.113-1.162,2.113-4.117V122.9h11.928V181.487z"/>
	<path fill="#FFFFFF" d="M207.125,132.399h-6.652V122.9h25.336v9.499h-6.65v60.911h-12.034V132.399z"/>
	<path fill="#FFFFFF" d="M229.924,122.9h12.036v70.41h-12.036V122.9z"/>
	<path fill="#FFFFFF" d="M248.608,135.673v-2.639c0-4.435,1.266-7.073,4.223-8.762c2.111-1.161,4.115-1.479,9.817-1.479
		c6.966,0,9.183,0.528,11.505,2.639c1.479,1.479,2.217,3.167,2.535,5.596c0.104,1.056,0.104,1.478,0.104,4.645v44.97
		c0,4.752-0.104,5.806-0.738,7.284c-0.95,2.429-3.167,4.327-5.806,4.962c-1.479,0.422-3.59,0.634-7.601,0.634
		c-5.702,0-7.706-0.318-9.817-1.584c-2.957-1.688-4.223-4.327-4.223-8.761v-2.535V135.673z M264.759,137.361v-1.478
		c0-2.639-0.632-3.589-2.11-3.589c-1.057,0-1.688,0.633-1.9,1.794c-0.106,0.528-0.213,1.267-0.213,3.272v41.486
		c0,2.323,0.106,2.957,0.213,3.483c0.315,1.057,0.95,1.69,1.9,1.69c1.479,0,2.11-1.162,2.11-3.695v-1.479V137.361z"/>
	<path fill="#FFFFFF" d="M283.442,122.9h12.352l6.65,33.041V122.9h10.558v70.41h-12.246L294,157.946v35.364h-10.558V122.9z"/>
</g>
<g>
	<g>
		<rect x="8.44" y="12.45" fill="#ED1C24" width="317.412" height="4.433"/>
	</g>
</g>
<g>
	<g>
		<rect x="8.44" y="12.45" fill="#ED1C24" width="4.433" height="102.783"/>
	</g>
</g>
<g>
	<path fill="#ED1F24" d="M34.809,70.957v19.116c0,2.855,0.745,4.221,2.483,4.221c1.738,0,2.483-1.366,2.483-4.469V74.555
		c0-4.468-0.249-4.84-2.981-6.454l-0.745-0.497l-8.191-4.841c-5.959-3.476-7.2-5.709-7.2-13.282V36.323V35.33
		c0-6.082,1.24-8.937,4.84-11.047c2.606-1.49,4.966-1.862,12.538-1.862c6.702,0,8.938,0.372,11.544,2.234
		c3.102,2.234,4.219,5.089,4.219,10.428v1.614v14.399H39.775V38.433c0-3.972-0.622-4.965-2.483-4.965
		c-1.862,0-2.483,1.117-2.483,4.593v0.372v11.297c0,2.855,0.124,3.103,1.862,4.22l11.544,7.077
		c4.468,2.854,5.585,5.089,5.585,11.668v0.869v18.248c0,5.958-0.745,8.441-3.351,10.799c-2.483,2.359-5.338,2.979-13.655,2.979
		c-6.33,0-8.44-0.373-10.8-1.614c-3.847-2.11-5.336-5.213-5.336-10.923v-1.489V70.957H34.809z"/>
	<path fill="#ED1F24" d="M61,37.565V34.46c0-5.212,1.49-8.317,4.966-10.303c2.483-1.365,4.84-1.737,11.544-1.737
		c8.194,0,10.8,0.62,13.53,3.103c1.738,1.738,2.608,3.725,2.981,6.579c0.123,1.242,0.123,1.738,0.123,5.463v52.879
		c0,5.586-0.123,6.828-0.868,8.566c-1.117,2.855-3.725,5.089-6.827,5.834c-1.738,0.497-4.221,0.745-8.938,0.745
		c-6.704,0-9.062-0.373-11.544-1.862C62.489,101.741,61,98.638,61,93.424v-2.98V37.565z M79.993,39.551v-1.738
		c0-3.103-0.745-4.22-2.483-4.22c-1.24,0-1.985,0.745-2.234,2.11c-0.125,0.621-0.249,1.49-0.249,3.849v48.784
		c0,2.73,0.124,3.476,0.249,4.097c0.373,1.24,1.117,1.985,2.234,1.985c1.738,0,2.483-1.365,2.483-4.344v-1.737V39.551z"/>
	<path fill="#ED1F24" d="M101.59,37.44v-3.104c0-5.089,1.615-8.193,4.966-10.179c2.359-1.489,4.84-1.737,12.04-1.737
		c7.572,0,10.055,0.62,12.787,2.979c1.862,1.614,2.855,3.849,3.228,6.828c0.124,1.241,0.124,1.986,0.124,5.338v13.53h-14.151V39.551
		v-1.614c0-3.104-0.745-4.345-2.483-4.345c-1.613,0-2.483,1.241-2.483,4.096v1.738v49.033c0,2.606,0.125,3.351,0.249,3.972
		c0.372,1.24,1.117,1.985,2.234,1.985c1.738,0,2.483-1.365,2.483-4.344v-1.737V70.957h14.151v19.488
		c0,5.586-0.124,6.828-0.868,8.566c-1.117,2.855-3.726,5.089-6.828,5.834c-1.738,0.497-4.221,0.745-8.938,0.745
		c-6.704,0-9.062-0.373-11.544-1.862c-3.477-1.986-4.966-5.089-4.966-10.303v-2.98V37.44z"/>
	<path fill="#ED1F24" d="M142.306,22.544h14.153v82.797h-14.153V22.544z"/>
	<path fill="#ED1F24" d="M168.993,22.544h19.116l8.317,82.797h-14.027l-0.991-17.378h-6.332l-1.24,17.378h-12.415L168.993,22.544z
		 M180.786,76.791l-1.985-29.667c0-0.249,0-0.374-0.125-0.621l-0.124-3.104c-0.123-0.993-0.249-1.861-0.249-2.483l-0.123-0.869
		v0.869c-0.125,0.994-0.249,1.986-0.249,2.855c-0.124,1.489-0.249,2.606-0.249,2.731c0,0.248,0,0.497,0,0.621l-1.862,29.667H180.786
		z"/>
	<path fill="#ED1F24" d="M201.267,22.544h14.153v71.625h8.689v11.172h-22.842V22.544z"/>
	<path fill="#ED1F24" d="M228.947,22.544H243.1v82.797h-14.152V22.544z"/>
	<path fill="#ED1F24" d="M264.82,70.957v19.116c0,2.855,0.745,4.221,2.483,4.221c1.736,0,2.482-1.366,2.482-4.469V74.555
		c0-4.468-0.249-4.84-2.98-6.454l-0.745-0.497l-8.19-4.841c-5.96-3.476-7.2-5.709-7.2-13.282V36.323V35.33
		c0-6.082,1.24-8.937,4.84-11.047c2.606-1.49,4.966-1.862,12.538-1.862c6.702,0,8.937,0.372,11.545,2.234
		c3.102,2.234,4.219,5.089,4.219,10.428v1.614v14.399h-14.025V38.433c0-3.972-0.621-4.965-2.482-4.965
		c-1.862,0-2.483,1.117-2.483,4.593v0.372v11.297c0,2.855,0.124,3.103,1.862,4.22l11.544,7.077
		c4.468,2.854,5.585,5.089,5.585,11.668v0.869v18.248c0,5.958-0.744,8.441-3.351,10.799c-2.483,2.359-5.339,2.979-13.655,2.979
		c-6.33,0-8.44-0.373-10.8-1.614c-3.847-2.11-5.336-5.213-5.336-10.923v-1.489V70.957H264.82z"/>
	<path fill="#ED1F24" d="M295.109,33.716h-7.821V22.544h29.793v11.172h-7.821v71.625h-14.15V33.716z"/>
</g>
<g>
	<g>
		<rect x="321.419" y="12.45" fill="#ED1C24" width="4.434" height="100.445"/>
	</g>
</g>
<g>
</g>
</svg>
