<?xml version="1.0" standalone="no"?>
<!DOCTYPE svg PUBLIC "-//W3C//DTD SVG 20010904//EN"
 "http://www.w3.org/TR/2001/REC-SVG-20010904/DTD/svg10.dtd">
<svg version="1.0" xmlns="http://www.w3.org/2000/svg"
 width="6250.000000pt" height="2500.000000pt" viewBox="0 0 6250.000000 2500.000000"
 preserveAspectRatio="xMidYMid meet">
<metadata>
Created by potrace 1.14, written by Peter Selinger 2001-2017
</metadata>
<g transform="translate(0.000000,2500.000000) scale(0.100000,-0.100000)"
fill="#ed1f24" stroke="none">
<path d="M0 12500 l0 -12500 31250 0 31250 0 0 12500 0 12500 -31250 0 -31250
0 0 -12500z m30450 -40 l0 -1690 -5175 0 -5175 0 0 1690 0 1690 5175 0 5175 0
0 -1690z m4714 1369 c149 -19 236 -70 305 -178 l31 -48 0 -1130 0 -1130 -49
-69 c-55 -79 -108 -114 -212 -139 -148 -36 -508 -27 -621 15 -72 27 -153 109
-174 176 -21 65 -33 520 -33 1289 -1 687 9 955 38 1020 27 62 94 130 155 159
110 51 323 65 560 35z m5370 -3 c150 -25 232 -80 291 -195 l25 -50 0 -1107 0
-1106 -32 -60 c-53 -99 -137 -159 -249 -178 -110 -18 -376 -24 -469 -11 -165
24 -234 67 -293 179 l-37 70 0 1111 c0 1010 1 1115 16 1144 50 96 119 159 209
187 126 41 347 47 539 16z m-8814 -6 c87 -15 125 -35 186 -95 77 -77 85 -98
95 -254 11 -184 11 -591 -1 -728 -13 -157 -36 -202 -149 -280 -3 -2 20 -26 51
-53 34 -30 62 -66 73 -92 21 -54 31 -246 40 -795 l7 -403 -236 0 -236 0 0 98
c-1 291 -21 986 -30 1002 -10 20 -59 40 -96 40 l-24 0 0 -570 0 -570 -240 0
-240 0 0 1361 0 1362 368 -6 c202 -3 396 -11 432 -17z m1310 -170 l0 -190
-145 0 -145 0 0 -335 0 -335 145 0 145 0 0 -185 0 -185 -145 0 -145 0 0 -465
0 -465 145 0 145 0 0 -185 0 -185 -385 0 -385 0 0 1360 0 1360 385 0 385 0 0
-190z m583 176 c19 -20 22 -53 82 -1171 9 -159 20 -306 24 -325 9 -44 15 8 81
780 67 785 58 710 87 721 13 5 105 9 204 9 162 0 180 -2 186 -17 4 -10 -5
-139 -20 -288 -15 -148 -72 -740 -127 -1315 -55 -575 -103 -1054 -105 -1066
-4 -20 -13 -21 -177 -27 -95 -4 -232 -7 -304 -7 l-131 0 -6 53 c-4 28 -20 196
-37 372 -16 176 -68 718 -115 1205 -96 1004 -100 1052 -92 1074 6 14 34 16
221 16 172 0 217 -3 229 -14z m2627 -1161 l0 -1175 145 0 145 0 0 -185 0 -185
-380 0 -380 0 0 1360 0 1360 235 0 235 0 0 -1175z m884 1159 c3 -9 6 -361 7
-782 0 -872 11 -1474 27 -1514 13 -31 55 -47 76 -29 8 7 17 28 20 49 3 20 10
541 15 1156 8 899 13 1121 23 1127 7 5 113 9 236 9 l224 0 -5 -1212 c-3 -803
-8 -1231 -16 -1267 -14 -71 -50 -123 -114 -166 -100 -66 -150 -78 -353 -83
-202 -5 -333 8 -404 39 -54 24 -122 88 -157 147 -25 43 -26 49 -34 300 -4 142
-10 701 -14 1243 -8 963 -7 987 11 992 10 3 116 5 235 6 189 1 218 -1 223 -15z
m1719 10 l37 -7 -2 -181 -3 -181 -122 -3 -123 -3 0 -1169 0 -1170 -240 0 -240
0 0 1170 0 1170 -135 0 -135 0 0 190 0 190 463 0 c254 0 479 -3 500 -6z m664
-2 c10 -6 14 -304 20 -1360 l6 -1352 -241 0 -242 0 0 1360 0 1360 223 0 c122
0 228 -4 234 -8z m2000 -8 l72 -6 24 -106 c14 -59 67 -312 119 -562 l93 -455
6 505 c3 278 7 533 8 568 l1 62 199 0 199 0 6 -31 c3 -17 6 -627 6 -1355 l0
-1324 -197 0 c-228 0 -270 5 -284 32 -8 15 -125 588 -221 1088 -16 83 -13 152
-34 -832 l-6 -288 -199 0 -199 0 0 1361 0 1361 168 -6 c92 -4 199 -9 239 -12z"/>
<path d="M20718 13809 c-101 -15 -199 -78 -246 -157 l-27 -47 0 -420 c0 -486
-1 -481 87 -560 28 -25 142 -106 252 -180 111 -74 216 -148 235 -164 l33 -29
-4 -354 c-3 -257 -7 -359 -16 -375 -23 -42 -113 -49 -133 -11 -17 31 -29 234
-29 496 l0 242 -220 0 -220 0 0 -431 0 -431 36 -69 c45 -85 96 -133 166 -154
67 -20 344 -37 493 -29 86 5 122 11 165 31 114 50 174 139 191 281 15 118 6
883 -10 935 -21 65 -115 146 -350 302 -121 79 -225 155 -232 167 -17 32 -23
235 -11 426 8 132 13 167 27 183 20 21 56 25 87 8 44 -24 52 -69 56 -316 l4
-233 225 0 226 0 -7 253 c-4 138 -12 285 -17 326 -21 151 -75 239 -169 280
-78 34 -442 52 -592 30z"/>
<path d="M22035 13810 c-111 -13 -200 -69 -253 -159 l-27 -46 0 -1130 0 -1130
27 -46 c33 -57 87 -105 147 -133 44 -20 60 -21 338 -19 288 1 293 2 345 26 53
25 100 64 145 124 l25 32 8 578 c4 318 6 826 3 1128 l-5 550 -26 45 c-42 74
-81 116 -133 145 -46 25 -62 27 -227 35 -198 10 -279 10 -367 0z m264 -351
c20 -7 34 -20 39 -37 4 -15 7 -444 7 -954 l0 -927 -21 -28 c-29 -39 -88 -40
-117 -1 -19 25 -20 50 -29 550 -10 531 -4 1129 12 1284 9 91 18 110 53 117 12
2 22 5 23 6 1 0 15 -4 33 -10z"/>
<path d="M23358 13809 c-135 -20 -237 -109 -256 -224 -18 -102 -23 -391 -23
-1210 0 -836 6 -1007 39 -1071 26 -49 84 -105 142 -135 44 -24 49 -24 320 -23
353 2 372 5 456 88 43 42 66 73 73 101 11 39 15 152 26 673 l5 242 -224 0
-224 0 -4 -352 c-3 -358 -6 -386 -42 -410 -22 -15 -66 -7 -93 16 l-28 24 -3
926 c-2 795 0 931 12 961 26 61 99 71 133 19 14 -22 17 -63 21 -270 l5 -244
219 0 220 0 -5 313 c-4 362 -10 395 -83 476 -64 71 -114 89 -281 101 -160 11
-324 11 -405 -1z"/>
<path d="M24400 12475 l0 -1345 225 0 225 0 0 1345 0 1345 -225 0 -225 0 0
-1345z"/>
<path d="M25275 13798 c-6 -31 -204 -2229 -231 -2569 l-7 -86 54 -6 c30 -4
111 -7 182 -7 123 0 128 1 137 23 5 12 16 114 25 227 8 113 18 231 22 263 l6
57 47 0 c26 0 74 -3 108 -6 l60 -7 6 -61 c3 -33 11 -151 16 -261 6 -110 13
-208 16 -217 5 -16 24 -18 220 -18 l214 0 -5 53 c-3 28 -26 261 -51 517 -104
1077 -194 1957 -212 2060 -7 43 -9 45 -47 52 -22 4 -156 7 -297 7 l-258 1 -5
-22z m319 -798 c27 -322 56 -747 56 -835 0 -78 -2 -86 -24 -100 -19 -13 -38
-15 -85 -9 l-61 7 5 61 c3 33 12 176 20 316 9 140 22 345 30 455 29 381 34
392 59 105z"/>
<path d="M26330 12475 l0 -1345 370 0 370 0 0 175 0 174 -147 3 -148 3 -3
1168 -2 1167 -220 0 -220 0 0 -1345z"/>
<path d="M27240 12475 l0 -1345 215 0 215 0 0 1345 0 1345 -215 0 -215 0 0
-1345z"/>
<path d="M28245 13811 c-108 -14 -204 -73 -257 -159 -23 -37 -23 -40 -26 -468
-3 -423 -3 -433 18 -473 31 -61 82 -108 203 -186 209 -135 330 -220 349 -245
29 -40 38 -128 38 -375 -1 -267 -11 -370 -40 -399 -24 -24 -84 -27 -105 -5
-23 22 -34 154 -41 472 l-6 277 -215 0 -214 0 6 -382 c7 -486 10 -522 41 -575
36 -62 99 -111 174 -134 125 -40 561 -35 643 7 63 33 126 94 154 152 l28 57 3
492 3 491 -25 50 c-14 27 -46 68 -71 90 -45 39 -82 65 -340 234 -71 47 -139
96 -150 108 -19 21 -20 36 -20 294 1 288 4 312 49 341 23 15 27 15 56 0 52
-27 60 -62 72 -321 l12 -234 214 0 215 0 -7 278 c-7 316 -16 396 -51 467 -28
57 -93 107 -169 130 -56 17 -445 28 -541 16z"/>
<path d="M29140 13728 c0 -51 3 -130 7 -175 l6 -82 121 -3 121 -3 3 -1167 2
-1168 225 0 225 0 0 1170 0 1170 130 0 130 0 0 175 0 175 -485 0 -485 0 0 -92z"/>
<path d="M34925 13436 c-28 -42 -38 -422 -31 -1146 4 -360 9 -683 13 -718 5
-55 9 -65 29 -73 29 -10 51 -3 64 21 22 42 30 283 30 955 0 731 -7 919 -35
961 -20 31 -50 31 -70 0z"/>
<path d="M40284 13448 c-14 -6 -24 -23 -28 -47 -8 -47 -8 -1805 0 -1852 4 -26
14 -40 30 -48 35 -15 51 -5 71 47 17 44 18 104 18 927 0 917 -1 929 -42 970
-17 17 -20 17 -49 3z"/>
<path d="M31400 13056 l0 -407 38 7 c96 17 102 39 102 401 0 351 -9 388 -98
400 l-42 6 0 -407z"/>
</g>
</svg>
