<?xml version="1.0" standalone="no"?>
<!DOCTYPE svg PUBLIC "-//W3C//DTD SVG 20010904//EN"
 "http://www.w3.org/TR/2001/REC-SVG-20010904/DTD/svg10.dtd">
<svg version="1.0" xmlns="http://www.w3.org/2000/svg"
 width="5000.000000pt" height="2000.000000pt" viewBox="0 0 5000.000000 2000.000000"
 preserveAspectRatio="xMidYMid meet">
<metadata>
Created by potrace 1.14, written by Peter Selinger 2001-2017
</metadata>
<g transform="translate(0.000000,2000.000000) scale(0.100000,-0.100000)"
fill="#ed1f24" stroke="none">
<path d="M0 10000 l0 -10000 25000 0 25000 0 0 10000 0 10000 -25000 0 -25000
0 0 -10000z m24340 -5 l0 -1175 -4045 0 -4045 0 0 1175 0 1175 4045 0 4045 0
0 -1175z m3805 1064 c108 -15 169 -49 216 -122 l39 -60 0 -897 0 -897 -39 -60
c-31 -48 -50 -66 -92 -87 -74 -36 -192 -50 -364 -43 -176 7 -235 23 -291 82
-80 82 -77 49 -81 865 -3 399 0 798 5 887 8 155 10 165 38 210 33 54 90 96
150 113 99 28 257 32 419 9z m4185 11 c63 -6 139 -17 168 -26 64 -18 125 -70
158 -136 l24 -47 0 -881 0 -881 -24 -47 c-33 -65 -93 -117 -158 -137 -71 -21
-318 -31 -425 -17 -129 18 -189 58 -235 157 l-23 50 0 880 0 880 27 51 c50 96
125 137 274 153 44 5 84 9 89 10 6 0 62 -4 125 -9z m-7025 -9 c79 -6 121 -14
150 -29 52 -26 119 -99 133 -143 14 -47 23 -463 13 -645 -9 -172 -17 -192 -88
-246 l-44 -32 28 -21 c59 -42 80 -71 92 -125 8 -35 14 -217 18 -487 l6 -433
-185 0 -185 0 -6 423 c-4 232 -9 432 -13 443 -6 24 -43 44 -79 44 l-25 0 0
-455 0 -455 -190 0 -190 0 0 1085 0 1085 228 -1 c125 0 277 -4 337 -8z m1115
-141 l0 -150 -115 0 -115 0 0 -270 0 -270 115 0 115 0 0 -145 0 -145 -115 0
-115 0 0 -375 0 -375 115 0 115 0 0 -145 0 -145 -305 0 -305 0 0 1085 0 1085
305 0 305 0 0 -150z m482 95 c3 -27 16 -232 28 -455 11 -223 25 -468 30 -545
6 -77 10 -158 11 -180 1 -39 1 -39 9 -10 9 33 23 184 75 808 19 230 37 422 40
427 7 12 322 14 328 3 3 -5 1 -37 -4 -73 -5 -36 -49 -492 -99 -1015 -50 -522
-94 -977 -98 -1010 l-7 -60 -242 -3 -241 -2 -6 57 c-4 32 -31 321 -61 643 -31
322 -75 781 -98 1020 -24 239 -42 438 -40 443 3 4 86 6 186 5 l182 -3 7 -50z
m2088 -885 l0 -940 115 0 115 0 0 -145 0 -145 -300 0 -300 0 0 1085 0 1085
185 0 185 0 0 -940z m712 32 c6 -985 4 -964 59 -970 56 -7 54 -47 59 952 l5
921 188 3 187 2 -1 -847 c0 -467 -4 -918 -8 -1003 -6 -139 -9 -160 -30 -194
-32 -51 -91 -92 -170 -117 -114 -37 -429 -26 -513 17 -43 22 -107 90 -126 132
-14 33 -17 155 -24 1011 -5 535 -7 980 -4 987 4 11 42 14 189 14 l184 0 5
-908z m1403 758 l0 -145 -102 -3 -103 -3 0 -934 0 -935 -190 0 -190 0 0 935 0
935 -105 0 -105 0 0 150 0 150 398 -2 397 -3 0 -145z m513 -937 l2 -1083 -190
0 -190 0 0 1085 0 1085 188 -2 187 -3 3 -1082z m1643 1068 c4 -3 49 -213 100
-466 l94 -460 5 470 5 470 160 0 160 0 3 -1082 2 -1083 -184 0 c-141 0 -186 3
-195 13 -6 8 -44 189 -85 403 -42 214 -84 434 -95 489 l-19 100 -1 -165 c-1
-91 -4 -317 -8 -502 l-6 -338 -159 0 -158 0 0 1085 0 1084 188 -6 c103 -3 190
-8 193 -12z"/>
<path d="M16569 11051 c-66 -13 -113 -37 -158 -83 -63 -62 -65 -77 -65 -418
-1 -358 3 -380 74 -450 25 -25 108 -84 186 -132 77 -48 160 -105 185 -126 l44
-40 0 -285 c0 -266 -1 -286 -19 -306 -20 -22 -60 -27 -85 -12 -23 15 -30 94
-30 354 l-1 247 -181 0 -181 0 3 -347 4 -348 29 -58 c58 -119 124 -142 411
-142 199 0 200 0 257 28 70 34 113 84 136 157 14 48 17 103 17 410 -1 263 -4
367 -14 400 -19 67 -90 129 -290 255 -158 100 -176 113 -184 145 -13 51 -4
430 10 456 17 30 40 36 71 21 40 -18 50 -75 51 -274 l1 -173 180 0 180 0 0
173 c-1 391 -32 483 -180 536 -42 15 -384 24 -451 12z"/>
<path d="M17609 11051 c-95 -18 -173 -79 -200 -158 -11 -31 -14 -203 -14 -918
0 -817 1 -883 17 -917 28 -59 73 -104 129 -128 49 -21 62 -21 283 -18 218 3
234 4 278 26 28 14 64 44 87 73 l39 49 7 394 c4 216 6 623 3 903 l-4 509 -30
54 c-37 65 -87 108 -140 121 -52 13 -397 20 -455 10z m252 -298 c12 -13 15
-145 17 -744 2 -498 -1 -741 -8 -769 -19 -69 -85 -77 -112 -13 -8 19 -12 208
-15 608 -5 615 3 891 26 919 18 21 75 21 92 -1z"/>
<path d="M18679 11050 c-62 -11 -121 -42 -154 -82 -60 -71 -58 -51 -65 -701
-8 -735 -1 -1156 22 -1208 24 -56 73 -105 129 -129 49 -21 62 -21 283 -18 259
4 275 7 341 74 70 72 66 47 72 448 l6 366 -181 0 -182 0 0 -275 c0 -295 -5
-326 -50 -340 -28 -9 -68 18 -77 53 -5 15 -8 353 -8 752 0 678 1 728 18 753
13 20 26 27 51 27 58 0 61 -11 64 -237 l3 -203 180 0 179 0 0 213 c0 116 -5
243 -10 282 -17 113 -64 175 -162 212 -49 18 -379 28 -459 13z"/>
<path d="M19520 9980 l0 -1080 180 0 180 0 0 1080 0 1080 -180 0 -180 0 0
-1080z"/>
<path d="M20219 11058 c-5 -17 -196 -2144 -192 -2148 2 -3 72 -6 153 -8 149
-3 149 -3 154 20 3 13 12 115 20 227 9 112 17 206 20 208 2 3 40 1 84 -2 l81
-7 5 -37 c3 -20 8 -99 11 -176 3 -77 8 -161 11 -187 l6 -48 175 0 175 0 -7 88
c-4 48 -51 530 -105 1070 -74 751 -100 986 -111 993 -12 7 -477 14 -480 7z
m275 -930 c15 -196 26 -381 26 -412 0 -66 -13 -77 -83 -69 l-48 6 6 106 c17
297 37 587 45 681 6 58 10 112 11 120 4 51 21 -122 43 -432z"/>
<path d="M21060 9980 l0 -1080 300 0 300 0 0 145 0 145 -120 0 -120 0 0 935 0
935 -180 0 -180 0 0 -1080z"/>
<path d="M21790 9980 l0 -1080 175 0 175 0 0 1080 0 1080 -175 0 -175 0 0
-1080z"/>
<path d="M22579 11051 c-25 -5 -64 -18 -85 -29 -49 -25 -111 -91 -121 -129 -5
-16 -8 -179 -8 -363 l0 -335 27 -47 c30 -50 70 -81 218 -173 52 -33 125 -81
162 -107 82 -60 81 -53 80 -368 0 -282 -7 -309 -74 -310 -56 0 -60 21 -66 330
l-5 280 -174 0 -174 0 3 -357 c3 -327 5 -361 22 -393 66 -125 165 -157 451
-147 88 3 178 11 200 19 23 7 61 34 91 63 78 78 79 85 79 525 l0 375 -24 49
c-28 56 -72 91 -286 226 -78 50 -151 100 -161 111 -17 19 -19 39 -19 233 0
221 6 254 47 280 23 14 69 -20 79 -59 5 -15 11 -110 15 -211 l7 -184 174 0
175 0 -4 253 c-6 336 -22 383 -143 443 -53 25 -63 26 -247 30 -106 2 -214 -1
-239 -5z"/>
<path d="M23312 10918 l3 -143 103 -3 102 -3 0 -934 0 -935 180 0 180 0 0 935
0 935 105 0 105 0 0 145 0 145 -390 0 -391 0 3 -142z"/>
<path d="M27937 10755 c-11 -11 -16 -59 -22 -211 -9 -234 -1 -1301 10 -1327
10 -24 53 -33 71 -15 27 27 34 184 34 778 0 573 -7 747 -31 776 -15 18 -44 18
-62 -1z"/>
<path d="M32215 10756 c-20 -14 -20 -27 -20 -776 0 -749 0 -762 20 -776 33
-24 58 -13 75 31 13 34 15 145 15 745 0 600 -2 711 -15 745 -17 44 -42 55 -75
31z"/>
<path d="M25120 10444 l0 -327 37 6 c49 8 64 26 74 84 10 63 10 414 0 477 -10
57 -37 86 -82 86 l-29 0 0 -326z"/>
</g>
</svg>
