<?xml version="1.0" standalone="no"?>
<!DOCTYPE svg PUBLIC "-//W3C//DTD SVG 20010904//EN"
 "http://www.w3.org/TR/2001/REC-SVG-20010904/DTD/svg10.dtd">
<svg version="1.0" xmlns="http://www.w3.org/2000/svg"
 width="418.000000pt" height="264.000000pt" viewBox="0 0 418.000000 264.000000"
 preserveAspectRatio="xMidYMid meet">
<metadata>
Created by potrace 1.14, written by Peter Selinger 2001-2017
</metadata>
<g transform="translate(0.000000,264.000000) scale(0.100000,-0.100000)"
fill="#ed1f24" stroke="none">
<path d="M514 2350 c-176 -18 -252 -84 -274 -237 -13 -89 -12 -478 0 -568 19
-129 47 -158 301 -309 80 -47 155 -96 165 -107 18 -20 19 -41 19 -315 0 -315
0 -313 -52 -329 -17 -4 -29 1 -48 19 l-25 25 0 281 0 280 -186 0 -186 0 4
-337 c4 -291 7 -345 22 -385 24 -65 98 -133 167 -152 130 -36 438 -28 525 14
61 30 110 89 129 154 14 47 16 110 13 433 -3 367 -4 379 -25 419 -31 59 -68
87 -267 208 -97 60 -181 116 -186 126 -6 11 -10 113 -10 237 0 252 4 266 68
261 57 -5 62 -23 62 -255 l0 -203 180 0 180 0 0 253 c0 306 -6 337 -80 409
-34 32 -65 52 -101 62 -63 19 -283 28 -395 16z"/>
<path d="M2971 2345 c1 -32 186 -500 197 -499 6 1 55 2 107 3 l96 1 -17 33
c-26 50 -112 161 -240 308 -138 159 -144 166 -143 154z"/>
<path d="M1190 1276 l0 -1056 165 0 165 0 0 455 0 455 51 0 c28 0 59 -5 71
-11 45 -24 48 -52 48 -489 l0 -410 160 0 160 0 0 434 c0 297 -4 444 -11 467
-16 48 -56 88 -113 114 l-49 22 56 32 c32 18 70 49 85 69 l27 35 0 387 0 387
-30 48 c-21 33 -47 57 -85 79 l-55 31 -322 3 -323 3 0 -1055z m471 785 l24
-19 3 -288 c2 -209 0 -296 -9 -317 -15 -35 -61 -57 -119 -57 l-40 0 0 350 0
350 59 0 c43 0 65 -5 82 -19z"/>
<path d="M2930 2262 c-50 -5 -56 -14 -63 -87 -4 -36 -9 -70 -12 -74 -2 -5 -35
-17 -71 -27 l-66 -18 -50 57 -50 57 -56 -31 c-32 -18 -58 -33 -60 -34 -1 -1 7
-31 18 -66 11 -35 20 -71 19 -79 0 -8 -22 -34 -49 -58 l-49 -43 -72 31 c-39
16 -74 30 -79 30 -4 0 -24 -23 -44 -52 l-36 -52 56 -57 57 -57 -28 -65 -27
-65 -84 -7 c-94 -8 -97 -11 -98 -100 l-1 -39 68 -25 67 -25 0 -74 0 -73 -70
-32 c-78 -35 -76 -30 -49 -129 l10 -38 78 0 78 0 27 -59 c14 -32 26 -62 26
-66 0 -5 -23 -35 -51 -67 -57 -66 -57 -67 0 -137 l27 -33 70 35 69 35 55 -48
55 -48 -23 -69 c-12 -38 -22 -74 -22 -80 0 -7 25 -26 56 -44 l56 -32 53 59 52
59 64 -21 c70 -22 76 -31 78 -114 1 -25 5 -51 9 -58 5 -7 38 -15 74 -19 l66
-6 7 32 c3 17 10 31 15 31 4 0 40 -34 79 -75 39 -41 71 -73 71 -70 0 3 -54
137 -121 298 -66 160 -123 298 -126 305 -4 9 12 12 62 12 58 0 66 2 61 18 -13
43 -126 471 -126 476 0 3 27 6 60 6 39 0 60 4 60 12 0 6 -27 116 -60 244 -33
128 -60 235 -60 238 0 3 30 6 66 6 57 0 65 2 60 18 -2 9 -21 100 -41 202 -20
102 -40 187 -43 190 -4 3 -23 4 -42 2z"/>
<path d="M3246 2178 c82 -86 165 -195 211 -280 l26 -48 179 0 179 0 -12 22
c-20 37 -171 183 -234 225 -116 78 -251 132 -390 158 l-39 7 80 -84z"/>
<path d="M3126 1603 c19 -71 42 -156 50 -190 l16 -63 159 0 159 0 0 34 c0 52
-27 182 -56 268 l-26 78 -168 0 -168 0 34 -127z"/>
<path d="M3545 1713 c23 -61 57 -198 67 -274 l12 -89 198 0 199 0 -5 33 c-21
128 -29 163 -50 224 -13 37 -29 80 -36 96 l-13 27 -190 0 c-176 0 -189 -1
-182 -17z"/>
<path d="M3101 1198 c5 -18 28 -104 51 -191 l41 -158 121 3 121 3 22 65 c22
65 48 189 56 268 l5 42 -213 0 -214 0 10 -32z"/>
<path d="M3620 1202 c0 -50 -31 -214 -54 -284 l-22 -68 185 0 186 0 33 83 c31
79 53 163 66 255 l6 42 -200 0 -200 0 0 -28z"/>
<path d="M3094 723 c3 -10 17 -81 32 -157 l28 -140 44 50 c52 58 118 150 157
217 l27 47 -147 0 c-135 0 -146 -1 -141 -17z"/>
<path d="M3477 704 c-33 -68 -125 -199 -203 -288 -77 -88 -77 -88 -43 -81 163
35 328 115 445 218 71 62 164 163 164 179 0 4 -78 8 -173 8 l-173 0 -17 -36z"/>
</g>
</svg>
